# xmcd
#
# Track frame offsets:
#  150
#  14873
#  34780
#  53262
#  76033
#  93744
#
# Disc length: 1528 seconds
#
# Revision: 0
# Processed by: cddbd v1.5.2PL0 Copyright (c) Steve Scherf et al.
# Submitted via: AltoMP3_Maker 3.0
#
DISCID=3e05f606
DTITLE=Elysion Fields - Elysion Fields
DYEAR=1900
DGENRE=
TTITLE0=The Forerunner
TTITLE1=Legends
TTITLE2=Retribution
TTITLE3=Breathe in Solace
TTITLE4=Edge of Reason
TTITLE5=The End In Sight
EXTD=
EXTT0=
EXTT1=
EXTT2=
EXTT3=
EXTT4=
EXTT5=
PLAYORDER=
